Simulation
nRows=15
nColumns=15
endheader
time  TH_x TH_y TH_z SC_y  SC_z  SC_x  AC_y  AC_z  AC_x  GH_y  GH_z  GH_yy  EL_x  PS_y
1.9499999999999993  0.000000  0.000000  0.000000  -29.535792766915055  12.792061310689599  23.897062203408577  61.050671849548415  12.225894785948471  3.9656511161631673  47.8966123689564  57.09107885778546  -45.12685822494019  22.359079163832675  0.000000
1.9889999999999992  0.000000  0.000000  0.000000  -29.04231389294327  12.378792863004813  23.479700408887357  60.86476819294516  11.845397688744656  3.0178566433793224  48.16656340343358  56.258287424267614  -44.53962354220843  22.56933131945142  0.000000
2.027999999999999  0.000000  0.000000  0.000000  -28.508503126331238  11.913822127706313  23.029520641540383  60.67398900115098  11.429687086228503  2.005315069543806  48.49038473273684  55.31314982510153  -44.03332397935496  22.77301371680669  0.000000
2.0669999999999993  0.000000  0.000000  0.000000  -27.94509137392367  11.405090409238946  22.541089091065757  60.47978674029098  10.988569680042893  0.9532338143711536  48.872029836947476  54.26839548877941  -43.61691540897887  22.957383028198766  0.000000
2.1059999999999994  0.000000  0.000000  0.000000  -27.3655107877555  10.862116604403393  22.005267234732656  60.281576438511294  10.534457431977492  -0.11255795639983432  49.29162282337082  53.1414905165818  -43.236924364836604  23.11139214860155  0.000000
2.144999999999999  0.000000  0.000000  0.000000  -26.785824689746942  10.294263137005796  21.408116817177735  60.082240245381094  10.080632120274021  -1.1638833237890736  49.70966024281631  51.954450818960325  -42.80588200821548  23.22661950451289  0.000000
2.1839999999999993  0.000000  0.000000  0.000000  -26.22723697326748  9.709216596639003  20.729910446554733  59.892050257747776  9.63860667553844  -2.1690007537492284  50.07858978945748  50.73246423066616  -42.24700653116385  23.300565038555057  0.000000
2.2229999999999994  0.000000  0.000000  0.000000  -25.7183254473322  9.111970997971826  19.945654690137655  59.72785186449247  9.217600994798568  -3.093972063262495  50.354992870013916  49.5009175967279  -41.52425795595646  23.339885271186503  0.000000
2.261999999999999  0.000000  0.000000  0.000000  -25.29187364001636  8.505171702015726  19.028229864048544  59.605621129597445  8.82705008388234  -3.9057589727796036  50.50798391435231  48.279397284993294  -40.63977365429369  23.360228750133725  0.000000
2.3009999999999993  0.000000  0.000000  0.000000  -24.976058540852005  7.890949125228599  17.95412562928825  59.531098864130016  8.479540119440154  -4.576433537695984  50.52181785122282  47.07534440149157  -39.605810796335845  23.383028483480228  0.000000
2.339999999999999  0.000000  0.000000  0.000000  -24.785552343350453  7.2737362404873735  16.708773594489926  59.49485325682057  8.190323892872593  -5.08557079525218  50.39012115417553  45.88101983497723  -38.412688300395985  23.431161993739178  0.000000
2.378999999999999  0.000000  0.000000  0.000000  -24.716825278522705  6.662419199341889  15.289535764471658  59.47511781232905  7.973637991230454  -5.422426333388267  50.104976279530575  44.676999237777586  -37.016195959188565  23.525185771657412  0.000000
2.4179999999999993  0.000000  0.000000  0.000000  -24.75117845594066  6.068514060996455  13.706686661448193  59.44513168476441  7.838752329283083  -5.587339006397074  49.649905517578425  43.43952223688367  -35.35188175081208  23.681828753898483  0.000000
2.456999999999999  0.000000  0.000000  0.000000  -24.863800096048948  5.501846152357109  11.981556604450526  59.38152333165863  7.787434727043712  -5.591863725168944  48.99934468282887  42.15013707457663  -33.36249480622715  23.914546627530555  0.000000
2.495999999999999  0.000000  0.000000  0.000000  -25.032331892138647  4.967852926310916  10.14400970522249  59.26898606839373  7.8147502678243335  -5.456007705392584  48.12387594976824  40.80057727061668  -31.018984105725796  24.23381557802976  0.000000
